<svg width="256" height="51" viewBox="0 0 256 51" version="1.1" xmlns="http://www.w3.org/2000/svg" xmlns:xlink="http://www.w3.org/1999/xlink" xmlns:figma="http://www.figma.com/figma/ns">
<title>Group</title>
<desc>Created using Figma</desc>
<g id="Canvas" transform="translate(789 408)" figma:type="canvas">
<g id="Group" style="mix-blend-mode:normal;" figma:type="frame">
<g id="Midwest Rooter" style="mix-blend-mode:normal;" figma:type="vector">
<use xlink:href="#path0_fill" transform="translate(-789 -407.632)" fill="#4F4F4F" style="mix-blend-mode:normal;"/>
<use xlink:href="#path1_fill" transform="translate(-789 -407.632)" fill="#4F4F4F" style="mix-blend-mode:normal;"/>
<use xlink:href="#path2_fill" transform="translate(-789 -407.632)" fill="#4F4F4F" style="mix-blend-mode:normal;"/>
<use xlink:href="#path3_fill" transform="translate(-789 -407.632)" fill="#4F4F4F" style="mix-blend-mode:normal;"/>
<use xlink:href="#path4_fill" transform="translate(-789 -407.632)" fill="#4F4F4F" style="mix-blend-mode:normal;"/>
<use xlink:href="#path5_fill" transform="translate(-789 -407.632)" fill="#4F4F4F" style="mix-blend-mode:normal;"/>
<use xlink:href="#path6_fill" transform="translate(-789 -407.632)" fill="#4F4F4F" style="mix-blend-mode:normal;"/>
<use xlink:href="#path7_fill" transform="translate(-789 -407.632)" fill="#4F4F4F" style="mix-blend-mode:normal;"/>
<use xlink:href="#path8_fill" transform="translate(-789 -407.632)" fill="#4F4F4F" style="mix-blend-mode:normal;"/>
<use xlink:href="#path9_fill" transform="translate(-789 -407.632)" fill="#4F4F4F" style="mix-blend-mode:normal;"/>
<use xlink:href="#path10_fill" transform="translate(-789 -407.632)" fill="#4F4F4F" style="mix-blend-mode:normal;"/>
<use xlink:href="#path11_fill" transform="translate(-789 -407.632)" fill="#4F4F4F" style="mix-blend-mode:normal;"/>
<use xlink:href="#path12_fill" transform="translate(-789 -407.632)" fill="#4F4F4F" style="mix-blend-mode:normal;"/>
</g>
<g id="St.Louis plumbing service" style="mix-blend-mode:normal;" figma:type="vector">
<use xlink:href="#path13_fill" transform="translate(-724.463 -371.864)" fill="#828282" style="mix-blend-mode:normal;"/>
<use xlink:href="#path14_fill" transform="translate(-724.463 -371.864)" fill="#828282" style="mix-blend-mode:normal;"/>
<use xlink:href="#path15_fill" transform="translate(-724.463 -371.864)" fill="#828282" style="mix-blend-mode:normal;"/>
<use xlink:href="#path16_fill" transform="translate(-724.463 -371.864)" fill="#828282" style="mix-blend-mode:normal;"/>
<use xlink:href="#path17_fill" transform="translate(-724.463 -371.864)" fill="#828282" style="mix-blend-mode:normal;"/>
<use xlink:href="#path18_fill" transform="translate(-724.463 -371.864)" fill="#828282" style="mix-blend-mode:normal;"/>
<use xlink:href="#path19_fill" transform="translate(-724.463 -371.864)" fill="#828282" style="mix-blend-mode:normal;"/>
<use xlink:href="#path20_fill" transform="translate(-724.463 -371.864)" fill="#828282" style="mix-blend-mode:normal;"/>
<use xlink:href="#path21_fill" transform="translate(-724.463 -371.864)" fill="#828282" style="mix-blend-mode:normal;"/>
<use xlink:href="#path22_fill" transform="translate(-724.463 -371.864)" fill="#828282" style="mix-blend-mode:normal;"/>
<use xlink:href="#path23_fill" transform="translate(-724.463 -371.864)" fill="#828282" style="mix-blend-mode:normal;"/>
<use xlink:href="#path24_fill" transform="translate(-724.463 -371.864)" fill="#828282" style="mix-blend-mode:normal;"/>
<use xlink:href="#path25_fill" transform="translate(-724.463 -371.864)" fill="#828282" style="mix-blend-mode:normal;"/>
<use xlink:href="#path26_fill" transform="translate(-724.463 -371.864)" fill="#828282" style="mix-blend-mode:normal;"/>
<use xlink:href="#path27_fill" transform="translate(-724.463 -371.864)" fill="#828282" style="mix-blend-mode:normal;"/>
<use xlink:href="#path28_fill" transform="translate(-724.463 -371.864)" fill="#828282" style="mix-blend-mode:normal;"/>
<use xlink:href="#path29_fill" transform="translate(-724.463 -371.864)" fill="#828282" style="mix-blend-mode:normal;"/>
<use xlink:href="#path30_fill" transform="translate(-724.463 -371.864)" fill="#828282" style="mix-blend-mode:normal;"/>
<use xlink:href="#path31_fill" transform="translate(-724.463 -371.864)" fill="#828282" style="mix-blend-mode:normal;"/>
<use xlink:href="#path32_fill" transform="translate(-724.463 -371.864)" fill="#828282" style="mix-blend-mode:normal;"/>
<use xlink:href="#path33_fill" transform="translate(-724.463 -371.864)" fill="#828282" style="mix-blend-mode:normal;"/>
<use xlink:href="#path34_fill" transform="translate(-724.463 -371.864)" fill="#828282" style="mix-blend-mode:normal;"/>
<use xlink:href="#path35_fill" transform="translate(-724.463 -371.864)" fill="#828282" style="mix-blend-mode:normal;"/>
</g>
</g>
</g>
<defs>
<path id="path0_fill" d="M 23.8268 6.57105L 23.7431 6.55437L 15.8566 26.0173L 13.6632 26.0173L 5.7767 6.57105L 5.69298 6.58772L 6.02786 16.4109L 6.02786 23.449L 8.75715 23.9159L 8.75715 26.0173L 0 26.0173L 0 23.9159L 2.72928 23.449L 2.72928 4.31955L 0 3.85257L 0 1.73449L 2.72928 1.73449L 6.94879 1.73449L 14.718 21.4643L 14.8185 21.4643L 22.571 1.73449L 29.5365 1.73449L 29.5365 3.85257L 26.8072 4.31955L 26.8072 23.449L 29.5365 23.9159L 29.5365 26.0173L 20.7794 26.0173L 20.7794 23.9159L 23.5087 23.449L 23.5087 16.4109L 23.8268 6.57105Z"/>
<path id="path1_fill" d="M 32.2156 23.9159L 34.9449 23.449L 34.9449 10.557L 32.2156 10.0901L 32.2156 7.97198L 38.2434 7.97198L 38.2434 23.449L 40.9727 23.9159L 40.9727 26.0173L 32.2156 26.0173L 32.2156 23.9159ZM 38.2434 3.35223L 34.9449 3.35223L 34.9449 0L 38.2434 0L 38.2434 3.35223Z"/>
<path id="path2_fill" d="M 55.7075 23.8659C 55.1159 24.6887 54.3903 25.3113 53.5308 25.7338C 52.6824 26.1563 51.6945 26.3676 50.5671 26.3676C 48.3569 26.3676 46.6266 25.5726 45.3764 23.9827C 44.1374 22.3816 43.5178 20.2802 43.5178 17.6785L 43.5178 17.3282C 43.5178 14.4263 44.1374 12.0858 45.3764 10.3069C 46.6266 8.52791 48.368 7.63842 50.6006 7.63842C 51.6722 7.63842 52.6154 7.83856 53.4303 8.23883C 54.2563 8.62797 54.9596 9.19502 55.5401 9.93996L 55.5401 2.58506L 52.8108 2.11808L 52.8108 0L 55.5401 0L 58.8386 0L 58.8386 23.449L 61.5679 23.9159L 61.5679 26.0173L 55.9754 26.0173L 55.7075 23.8659ZM 46.8164 17.6785C 46.8164 19.4908 47.1904 20.9473 47.9383 22.048C 48.6862 23.1488 49.8415 23.6991 51.4043 23.6991C 52.3866 23.6991 53.2126 23.4768 53.8824 23.032C 54.5522 22.5873 55.1047 21.9591 55.5401 21.1474L 55.5401 12.7752C 55.1159 12.0191 54.5633 11.4187 53.8824 10.974C 53.2015 10.5292 52.3866 10.3069 51.4378 10.3069C 49.8638 10.3069 48.6973 10.9573 47.9383 12.2582C 47.1904 13.559 46.8164 15.2491 46.8164 17.3282L 46.8164 17.6785Z"/>
<path id="path3_fill" d="M 70.526 10.0901L 68.4497 10.457L 70.8106 19.4463L 71.1958 21.6311L 71.2962 21.6311L 71.7651 19.4463L 75.3818 7.97198L 78.0273 7.97198L 81.6608 19.4463L 82.1799 21.8813L 82.2803 21.8813L 82.7659 19.4463L 84.9929 10.457L 82.8831 10.0901L 82.8831 7.97198L 89.7817 7.97198L 89.7817 10.0901L 88.2077 10.3235L 83.6366 26.0173L 80.9743 26.0173L 77.458 15.0267L 76.7046 11.9913L 76.6041 12.008L 75.9008 15.0267L 72.4516 26.0173L 69.7893 26.0173L 65.2181 10.3235L 63.6274 10.0901L 63.6274 7.97198L 70.526 7.97198L 70.526 10.0901Z"/>
<path id="path4_fill" d="M 100.732 26.3676C 98.2095 26.3676 96.2002 25.5337 94.7044 23.8659C 93.2198 22.187 92.4775 20.0133 92.4775 17.3449L 92.4775 16.6111C 92.4775 14.0427 93.2421 11.9079 94.7714 10.2068C 96.3119 8.49455 98.1314 7.63842 100.23 7.63842C 102.663 7.63842 104.505 8.37225 105.756 9.83989C 107.017 11.3075 107.648 13.2644 107.648 15.7105L 107.648 17.7618L 95.8933 17.7618L 95.843 17.8452C 95.8765 19.5797 96.3174 21.0084 97.1658 22.1314C 98.0142 23.2433 99.203 23.7992 100.732 23.7992C 101.849 23.7992 102.825 23.6435 103.662 23.3322C 104.511 23.0098 105.242 22.5706 105.856 22.0147L 107.145 24.1494C 106.498 24.7721 105.638 25.3002 104.567 25.7338C 103.506 26.1563 102.228 26.3676 100.732 26.3676ZM 100.23 10.2235C 99.1249 10.2235 98.1816 10.6905 97.4002 11.6244C 96.6188 12.5473 96.1388 13.7091 95.9602 15.1101L 95.9937 15.1935L 104.349 15.1935L 104.349 14.7598C 104.349 13.4701 104.003 12.3916 103.311 11.5243C 102.619 10.6571 101.592 10.2235 100.23 10.2235Z"/>
<path id="path5_fill" d="M 124.777 13.6424L 122.299 13.6424L 121.763 11.4743C 121.361 11.0963 120.853 10.7961 120.239 10.5737C 119.636 10.3402 118.95 10.2235 118.18 10.2235C 117.008 10.2235 116.137 10.4792 115.568 10.9907C 114.998 11.5021 114.714 12.1192 114.714 12.8419C 114.714 13.5535 114.965 14.115 115.467 14.5264C 115.969 14.9377 116.991 15.3046 118.531 15.6271C 120.82 16.1163 122.522 16.7834 123.638 17.6284C 124.754 18.4623 125.313 19.5853 125.313 20.9973C 125.313 22.5984 124.66 23.8937 123.354 24.8833C 122.059 25.8728 120.362 26.3676 118.263 26.3676C 116.89 26.3676 115.657 26.2119 114.563 25.9006C 113.469 25.5782 112.492 25.1167 111.633 24.5163L 111.616 20.3969L 114.094 20.3969L 114.714 22.8152C 115.093 23.1599 115.607 23.41 116.254 23.5657C 116.913 23.7214 117.582 23.7992 118.263 23.7992C 119.435 23.7992 120.351 23.5657 121.009 23.0987C 121.679 22.6206 122.014 21.998 122.014 21.2308C 122.014 20.5081 121.735 19.9133 121.177 19.4463C 120.63 18.9793 119.586 18.5735 118.046 18.2288C 115.847 17.7507 114.189 17.1003 113.073 16.2775C 111.956 15.4547 111.398 14.3429 111.398 12.942C 111.398 11.4743 112.023 10.2235 113.274 9.18946C 114.535 8.15544 116.17 7.63842 118.18 7.63842C 119.553 7.63842 120.786 7.81632 121.88 8.17211C 122.974 8.52791 123.884 9.02268 124.609 9.65644L 124.777 13.6424Z"/>
<path id="path6_fill" d="M 134.153 3.61908L 134.153 7.97198L 137.586 7.97198L 137.586 10.4069L 134.153 10.4069L 134.153 21.3642C 134.153 22.2092 134.326 22.8041 134.673 23.1488C 135.03 23.4934 135.499 23.6658 136.079 23.6658C 136.369 23.6658 136.693 23.6435 137.05 23.5991C 137.419 23.5435 137.726 23.4879 137.971 23.4323L 138.423 25.6838C 138.111 25.8839 137.653 26.0451 137.05 26.1674C 136.447 26.3009 135.845 26.3676 135.242 26.3676C 133.902 26.3676 132.836 25.9673 132.044 25.1668C 131.251 24.3551 130.855 23.0876 130.855 21.3642L 130.855 10.4069L 127.992 10.4069L 127.992 7.97198L 130.855 7.97198L 130.855 3.61908L 134.153 3.61908Z"/>
<path id="path7_fill" d="M 159.889 1.75117C 162.546 1.75117 164.583 2.34045 166.001 3.51901C 167.418 4.68646 168.127 6.34868 168.127 8.50567C 168.127 9.68423 167.798 10.7294 167.139 11.6411C 166.481 12.5528 165.537 13.27 164.31 13.7925C 165.638 14.2261 166.592 14.9322 167.173 15.9106C 167.764 16.889 168.06 18.0954 168.06 19.5297L 168.06 21.481C 168.06 22.2259 168.155 22.7763 168.345 23.1321C 168.535 23.4879 168.847 23.6991 169.282 23.7658L 170.086 23.8659L 170.086 26.0173L 168.311 26.0173C 167.028 26.0173 166.112 25.5726 165.565 24.6831C 165.029 23.7936 164.762 22.7151 164.762 21.4476L 164.762 19.563C 164.762 18.2399 164.376 17.1781 163.606 16.3776C 162.836 15.5771 161.803 15.1768 160.509 15.1768L 155.217 15.1768L 155.217 23.449L 157.947 23.9159L 157.947 26.0173L 149.19 26.0173L 149.19 23.9159L 151.919 23.449L 151.919 4.31955L 149.19 3.85257L 149.19 1.75117L 151.919 1.75117L 159.889 1.75117ZM 155.217 12.5917L 159.554 12.5917C 161.396 12.5917 162.736 12.2415 163.573 11.541C 164.41 10.8406 164.829 9.81766 164.829 8.47231C 164.829 7.19369 164.427 6.1819 163.623 5.43696C 162.819 4.69202 161.575 4.31955 159.889 4.31955L 155.217 4.31955L 155.217 12.5917Z"/>
<path id="path8_fill" d="M 172.715 16.8279C 172.715 14.1594 173.441 11.9635 174.892 10.2402C 176.343 8.50567 178.313 7.63842 180.802 7.63842C 183.303 7.63842 185.279 8.50011 186.73 10.2235C 188.192 11.9469 188.923 14.1483 188.923 16.8279L 188.923 17.1948C 188.923 19.8855 188.198 22.0869 186.747 23.7992C 185.295 25.5114 183.325 26.3676 180.836 26.3676C 178.324 26.3676 176.343 25.5114 174.892 23.7992C 173.441 22.0758 172.715 19.8744 172.715 17.1948L 172.715 16.8279ZM 176.014 17.1948C 176.014 19.1072 176.415 20.686 177.219 21.9313C 178.034 23.1766 179.24 23.7992 180.836 23.7992C 182.399 23.7992 183.588 23.1766 184.402 21.9313C 185.217 20.686 185.625 19.1072 185.625 17.1948L 185.625 16.8279C 185.625 14.9377 185.217 13.3645 184.402 12.1081C 183.588 10.8517 182.388 10.2235 180.802 10.2235C 179.217 10.2235 178.023 10.8517 177.219 12.1081C 176.415 13.3645 176.014 14.9377 176.014 16.8279L 176.014 17.1948Z"/>
<path id="path9_fill" d="M 191.971 16.8279C 191.971 14.1594 192.696 11.9635 194.147 10.2402C 195.599 8.50567 197.569 7.63842 200.058 7.63842C 202.559 7.63842 204.534 8.50011 205.985 10.2235C 207.448 11.9469 208.179 14.1483 208.179 16.8279L 208.179 17.1948C 208.179 19.8855 207.453 22.0869 206.002 23.7992C 204.551 25.5114 202.581 26.3676 200.092 26.3676C 197.58 26.3676 195.599 25.5114 194.147 23.7992C 192.696 22.0758 191.971 19.8744 191.971 17.1948L 191.971 16.8279ZM 195.269 17.1948C 195.269 19.1072 195.671 20.686 196.475 21.9313C 197.29 23.1766 198.495 23.7992 200.092 23.7992C 201.654 23.7992 202.843 23.1766 203.658 21.9313C 204.473 20.686 204.88 19.1072 204.88 17.1948L 204.88 16.8279C 204.88 14.9377 204.473 13.3645 203.658 12.1081C 202.843 10.8517 201.643 10.2235 200.058 10.2235C 198.473 10.2235 197.279 10.8517 196.475 12.1081C 195.671 13.3645 195.269 14.9377 195.269 16.8279L 195.269 17.1948Z"/>
<path id="path10_fill" d="M 216.97 3.61908L 216.97 7.97198L 220.402 7.97198L 220.402 10.4069L 216.97 10.4069L 216.97 21.3642C 216.97 22.2092 217.143 22.8041 217.489 23.1488C 217.846 23.4934 218.315 23.6658 218.895 23.6658C 219.185 23.6658 219.509 23.6435 219.866 23.5991C 220.235 23.5435 220.542 23.4879 220.787 23.4323L 221.239 25.6838C 220.927 25.8839 220.469 26.0451 219.866 26.1674C 219.264 26.3009 218.661 26.3676 218.058 26.3676C 216.718 26.3676 215.652 25.9673 214.86 25.1668C 214.067 24.3551 213.671 23.0876 213.671 21.3642L 213.671 10.4069L 210.808 10.4069L 210.808 7.97198L 213.671 7.97198L 213.671 3.61908L 216.97 3.61908Z"/>
<path id="path11_fill" d="M 232.039 26.3676C 229.516 26.3676 227.507 25.5337 226.011 23.8659C 224.527 22.187 223.784 20.0133 223.784 17.3449L 223.784 16.6111C 223.784 14.0427 224.549 11.9079 226.078 10.2068C 227.619 8.49455 229.438 7.63842 231.537 7.63842C 233.97 7.63842 235.812 8.37225 237.062 9.83989C 238.324 11.3075 238.955 13.2644 238.955 15.7105L 238.955 17.7618L 227.2 17.7618L 227.15 17.8452C 227.183 19.5797 227.624 21.0084 228.473 22.1314C 229.321 23.2433 230.51 23.7992 232.039 23.7992C 233.156 23.7992 234.132 23.6435 234.969 23.3322C 235.818 23.0098 236.549 22.5706 237.163 22.0147L 238.452 24.1494C 237.805 24.7721 236.945 25.3002 235.874 25.7338C 234.813 26.1563 233.535 26.3676 232.039 26.3676ZM 231.537 10.2235C 230.432 10.2235 229.489 10.6905 228.707 11.6244C 227.926 12.5473 227.446 13.7091 227.267 15.1101L 227.301 15.1935L 235.656 15.1935L 235.656 14.7598C 235.656 13.4701 235.31 12.3916 234.618 11.5243C 233.926 10.6571 232.899 10.2235 231.537 10.2235Z"/>
<path id="path12_fill" d="M 242.22 10.0901L 242.22 7.97198L 247.896 7.97198L 248.214 10.5904C 248.727 9.66756 249.358 8.94485 250.106 8.42228C 250.865 7.89971 251.73 7.63842 252.701 7.63842C 252.958 7.63842 253.22 7.66066 253.488 7.70514C 253.767 7.73849 253.98 7.77741 254.125 7.82188L 253.689 10.8739L 251.814 10.7738C 250.943 10.7738 250.212 10.9795 249.621 11.3909C 249.029 11.7912 248.571 12.3582 248.247 13.0921L 248.247 23.449L 250.977 23.9159L 250.977 26.0173L 242.22 26.0173L 242.22 23.9159L 244.949 23.449L 244.949 10.557L 242.22 10.0901Z"/>
<path id="path13_fill" d="M 7.68392 3.80557L 6.54358 3.80557L 6.26041 2.32325C 6.03081 2.14271 5.72467 1.99306 5.34201 1.87428C 4.95934 1.75551 4.51545 1.69612 4.01033 1.69612C 3.20929 1.69612 2.59447 1.85528 2.16589 2.1736C 1.7373 2.48716 1.52301 2.89813 1.52301 3.40649C 1.52301 3.85784 1.73985 4.23554 2.17354 4.53961C 2.61233 4.83892 3.31898 5.10261 4.29351 5.33066C 5.46701 5.60146 6.35735 6.00055 6.96451 6.52791C 7.57677 7.05528 7.88291 7.70855 7.88291 8.48771C 7.88291 9.3239 7.51555 9.99617 6.78083 10.5045C 6.05121 11.0129 5.09455 11.2671 3.91084 11.2671C 3.05367 11.2671 2.29089 11.1364 1.6225 10.8751C 0.959215 10.6138 0.418381 10.2717 0 9.84888L 0 7.91759L 1.13269 7.91759L 1.42352 9.40704C 1.71434 9.63034 2.06129 9.81325 2.46437 9.95578C 2.86744 10.0983 3.3496 10.1696 3.91084 10.1696C 4.67107 10.1696 5.27058 10.0199 5.70937 9.72061C 6.15326 9.42129 6.3752 9.01508 6.3752 8.50197C 6.3752 8.02687 6.18387 7.63015 5.80121 7.31183C 5.41854 6.98877 4.7425 6.71796 3.77308 6.49941C 2.59447 6.2381 1.67352 5.85327 1.01024 5.34491C 0.34695 4.83655 0.0153066 4.19754 0.0153066 3.42787C 0.0153066 2.61544 0.385216 1.9408 1.12504 1.40393C 1.86486 0.862312 2.82662 0.591503 4.01033 0.591503C 4.79097 0.591503 5.50018 0.717405 6.13795 0.96921C 6.78083 1.21626 7.29615 1.51795 7.68392 1.87428L 7.68392 3.80557Z"/>
<path id="path14_fill" d="M 11.9392 1.54646L 11.9392 3.40649L 13.5081 3.40649L 13.5081 4.44696L 11.9392 4.44696L 11.9392 9.1291C 11.9392 9.49018 12.0182 9.74436 12.1764 9.89164C 12.3397 10.0389 12.554 10.1126 12.8193 10.1126C 12.9519 10.1126 13.0999 10.1031 13.2632 10.0841C 13.4316 10.0603 13.5719 10.0366 13.6841 10.0128L 13.8908 10.9749C 13.7479 11.0604 13.5387 11.1293 13.2632 11.1815C 12.9877 11.2386 12.7121 11.2671 12.4366 11.2671C 11.8244 11.2671 11.3371 11.096 10.9748 10.754C 10.6126 10.4071 10.4315 9.86551 10.4315 9.1291L 10.4315 4.44696L 9.12274 4.44696L 9.12274 3.40649L 10.4315 3.40649L 10.4315 1.54646L 11.9392 1.54646Z"/>
<path id="path15_fill" d="M 16.9827 11.1174L 15.475 11.1174L 15.475 9.67785L 16.9827 9.67785L 16.9827 11.1174Z"/>
<path id="path16_fill" d="M 18.6894 11.1174L 18.6894 10.2195L 19.9369 10.0199L 19.9369 1.84578L 18.6894 1.64623L 18.6894 0.741161L 19.9369 0.741161L 21.4446 0.741161L 22.6921 0.741161L 22.6921 1.64623L 21.4446 1.84578L 21.4446 10.0199L 25.3171 10.0199L 25.4319 8.82979L 26.7177 8.82979L 26.7177 11.1174L 18.6894 11.1174Z"/>
<path id="path17_fill" d="M 28.0188 7.19068C 28.0188 6.05044 28.3504 5.11211 29.0137 4.3757C 29.677 3.63454 30.5775 3.26396 31.7153 3.26396C 32.8582 3.26396 33.7613 3.63216 34.4246 4.36857C 35.093 5.10498 35.4272 6.04569 35.4272 7.19068L 35.4272 7.34747C 35.4272 8.49722 35.0955 9.43792 34.4322 10.1696C 33.7689 10.9012 32.8684 11.2671 31.7306 11.2671C 30.5826 11.2671 29.677 10.9012 29.0137 10.1696C 28.3504 9.43317 28.0188 8.49247 28.0188 7.34747L 28.0188 7.19068ZM 29.5265 7.34747C 29.5265 8.16464 29.7101 8.83929 30.0775 9.37141C 30.45 9.90352 31.001 10.1696 31.7306 10.1696C 32.4449 10.1696 32.9883 9.90352 33.3608 9.37141C 33.7332 8.83929 33.9195 8.16464 33.9195 7.34747L 33.9195 7.19068C 33.9195 6.38301 33.7332 5.71074 33.3608 5.17387C 32.9883 4.63701 32.4398 4.36857 31.7153 4.36857C 30.9908 4.36857 30.4449 4.63701 30.0775 5.17387C 29.7101 5.71074 29.5265 6.38301 29.5265 7.19068L 29.5265 7.34747Z"/>
<path id="path18_fill" d="M 42.7361 9.97716C 42.4759 10.3905 42.1391 10.7088 41.7258 10.9321C 41.3177 11.1554 40.8457 11.2671 40.31 11.2671C 39.412 11.2671 38.7104 10.9986 38.2053 10.4618C 37.7002 9.9249 37.4476 9.08872 37.4476 7.95322L 37.4476 4.5111L 36.4986 4.31156L 36.4986 3.40649L 37.4476 3.40649L 38.9553 3.40649L 38.9553 7.96748C 38.9553 8.7894 39.0854 9.35478 39.3457 9.66359C 39.6059 9.97241 40.0115 10.1268 40.5625 10.1268C 41.0983 10.1268 41.5396 10.027 41.8866 9.82751C 42.2386 9.62321 42.5039 9.33577 42.6825 8.96519L 42.6825 4.5111L 41.5728 4.31156L 41.5728 3.40649L 42.6825 3.40649L 44.1902 3.40649L 44.1902 10.0199L 45.1392 10.2195L 45.1392 11.1174L 42.8356 11.1174L 42.7361 9.97716Z"/>
<path id="path19_fill" d="M 46.3331 10.2195L 47.5806 10.0199L 47.5806 4.5111L 46.3331 4.31156L 46.3331 3.40649L 49.0883 3.40649L 49.0883 10.0199L 50.3358 10.2195L 50.3358 11.1174L 46.3331 11.1174L 46.3331 10.2195ZM 49.0883 1.43244L 47.5806 1.43244L 47.5806 0L 49.0883 0L 49.0883 1.43244Z"/>
<path id="path20_fill" d="M 57.8284 5.82951L 56.6957 5.82951L 56.4508 4.90306C 56.2671 4.74153 56.035 4.61325 55.7543 4.51823C 55.4788 4.41846 55.165 4.36857 54.813 4.36857C 54.2773 4.36857 53.8793 4.47785 53.6191 4.69639C 53.3589 4.91494 53.2288 5.17862 53.2288 5.48744C 53.2288 5.79151 53.3435 6.03143 53.5731 6.20722C 53.8027 6.38301 54.2696 6.53979 54.9737 6.67757C 56.0197 6.88662 56.7977 7.17168 57.308 7.53276C 57.8182 7.88908 58.0733 8.36894 58.0733 8.97232C 58.0733 9.65647 57.7748 10.21 57.1779 10.6328C 56.586 11.0556 55.8105 11.2671 54.8513 11.2671C 54.2237 11.2671 53.6599 11.2006 53.1599 11.0675C 52.6599 10.9297 52.2134 10.7326 51.8205 10.476L 51.8129 8.71576L 52.9456 8.71576L 53.2288 9.74911C 53.4022 9.89639 53.6369 10.0033 53.9329 10.0698C 54.2339 10.1363 54.54 10.1696 54.8513 10.1696C 55.387 10.1696 55.8054 10.0698 56.1064 9.87026C 56.4125 9.66597 56.5656 9.39991 56.5656 9.07209C 56.5656 8.76327 56.438 8.50909 56.1829 8.30955C 55.9329 8.11001 55.4559 7.93659 54.7518 7.78931C 53.7466 7.58502 52.9889 7.30708 52.4787 6.95551C 51.9685 6.60393 51.7134 6.12883 51.7134 5.5302C 51.7134 4.90306 51.9991 4.36857 52.5706 3.92673C 53.1471 3.48488 53.8946 3.26396 54.813 3.26396C 55.4406 3.26396 56.0044 3.33997 56.5044 3.49201C 57.0044 3.64404 57.4202 3.85546 57.7519 4.12627L 57.8284 5.82951Z"/>
<path id="path21_fill" d="M 63.201 13.177L 64.4485 12.9774L 64.4485 4.5111L 63.201 4.31156L 63.201 3.40649L 65.7419 3.40649L 65.8797 4.34719C 66.1552 3.99562 66.4894 3.72718 66.8822 3.54189C 67.2802 3.3566 67.7394 3.26396 68.2598 3.26396C 69.2854 3.26396 70.0813 3.64404 70.6477 4.4042C 71.2191 5.15962 71.5048 6.15971 71.5048 7.40448L 71.5048 7.55414C 71.5048 8.66588 71.2191 9.56382 70.6477 10.248C 70.0762 10.9274 69.2879 11.2671 68.2828 11.2671C 67.7726 11.2671 67.3236 11.1887 66.9358 11.0319C 66.5532 10.8704 66.2266 10.6328 65.9562 10.3192L 65.9562 12.9774L 67.2037 13.177L 67.2037 14.0821L 63.201 14.0821L 63.201 13.177ZM 69.9895 7.40448C 69.9895 6.52554 69.8058 5.80576 69.4385 5.24514C 69.0711 4.68451 68.5252 4.4042 67.8007 4.4042C 67.3721 4.4042 67.0047 4.49447 66.6986 4.67501C 66.3924 4.85555 66.145 5.10261 65.9562 5.41617L 65.9562 9.17186C 66.145 9.49018 66.3899 9.73724 66.6909 9.91302C 66.997 10.0841 67.3721 10.1696 67.816 10.1696C 68.5303 10.1696 69.0711 9.92728 69.4385 9.44267C 69.8058 8.95807 69.9895 8.32856 69.9895 7.55414L 69.9895 7.40448Z"/>
<path id="path22_fill" d="M 72.5916 0.905071L 72.5916 0L 75.3468 0L 75.3468 10.0199L 76.5943 10.2195L 76.5943 11.1174L 72.5916 11.1174L 72.5916 10.2195L 73.8391 10.0199L 73.8391 1.10461L 72.5916 0.905071Z"/>
<path id="path23_fill" d="M 83.666 9.97716C 83.4057 10.3905 83.069 10.7088 82.6557 10.9321C 82.2475 11.1554 81.7756 11.2671 81.2399 11.2671C 80.3419 11.2671 79.6403 10.9986 79.1352 10.4618C 78.6301 9.9249 78.3775 9.08872 78.3775 7.95322L 78.3775 4.5111L 77.4285 4.31156L 77.4285 3.40649L 78.3775 3.40649L 79.8852 3.40649L 79.8852 7.96748C 79.8852 8.7894 80.0153 9.35478 80.2755 9.66359C 80.5358 9.97241 80.9414 10.1268 81.4924 10.1268C 82.0281 10.1268 82.4695 10.027 82.8164 9.82751C 83.1685 9.62321 83.4338 9.33577 83.6124 8.96519L 83.6124 4.5111L 82.5026 4.31156L 82.5026 3.40649L 83.6124 3.40649L 85.1201 3.40649L 85.1201 10.0199L 86.0691 10.2195L 86.0691 11.1174L 83.7654 11.1174L 83.666 9.97716Z"/>
<path id="path24_fill" d="M 86.9645 10.2195L 88.212 10.0199L 88.212 4.5111L 86.9645 4.31156L 86.9645 3.40649L 89.5667 3.40649L 89.6661 4.41133C 89.9315 4.0455 90.2733 3.76282 90.6917 3.56327C 91.1101 3.36373 91.5948 3.26396 92.1458 3.26396C 92.6969 3.26396 93.1688 3.38273 93.5617 3.62028C 93.9597 3.85784 94.2581 4.21416 94.4571 4.68927C 94.7173 4.25217 95.0617 3.90535 95.4903 3.64879C 95.9189 3.39224 96.4189 3.26396 96.9904 3.26396C 97.8373 3.26396 98.5057 3.53477 98.9955 4.07638C 99.4853 4.61325 99.7302 5.4233 99.7302 6.50654L 99.7302 10.0199L 100.978 10.2195L 100.978 11.1174L 96.9674 11.1174L 96.9674 10.2195L 98.2149 10.0199L 98.2149 6.49228C 98.2149 5.73212 98.0746 5.19525 97.794 4.88168C 97.5133 4.56336 97.0975 4.4042 96.5465 4.4042C 96.0209 4.4042 95.5975 4.57762 95.276 4.92444C 94.9597 5.26652 94.776 5.69886 94.725 6.22147L 94.725 10.0199L 95.9725 10.2195L 95.9725 11.1174L 91.9698 11.1174L 91.9698 10.2195L 93.2173 10.0199L 93.2173 6.49228C 93.2173 5.77013 93.0719 5.24276 92.781 4.91019C 92.4953 4.57287 92.0795 4.4042 91.5335 4.4042C 91.0743 4.4042 90.6968 4.4921 90.4009 4.66789C 90.1049 4.84368 89.8779 5.09073 89.7197 5.40905L 89.7197 10.0199L 90.9672 10.2195L 90.9672 11.1174L 86.9645 11.1174L 86.9645 10.2195Z"/>
<path id="path25_fill" d="M 109.657 7.55414C 109.657 8.66588 109.368 9.56382 108.792 10.248C 108.22 10.9274 107.432 11.2671 106.427 11.2671C 105.886 11.2671 105.417 11.172 105.019 10.982C 104.621 10.7872 104.289 10.5022 104.024 10.1268L 103.886 11.1174L 102.585 11.1174L 102.585 1.10461L 101.337 0.905071L 101.337 0L 104.093 0L 104.093 4.31869C 104.353 3.97661 104.674 3.71531 105.057 3.53477C 105.445 3.35423 105.896 3.26396 106.412 3.26396C 107.432 3.26396 108.228 3.64404 108.799 4.4042C 109.371 5.16437 109.657 6.16446 109.657 7.40448L 109.657 7.55414ZM 108.141 7.40448C 108.141 6.51604 107.968 5.79388 107.621 5.23801C 107.274 4.68214 106.743 4.4042 106.029 4.4042C 105.565 4.4042 105.172 4.50873 104.85 4.71777C 104.534 4.92682 104.281 5.20713 104.093 5.5587L 104.093 8.96519C 104.281 9.32152 104.537 9.60421 104.858 9.81325C 105.185 10.0223 105.58 10.1268 106.044 10.1268C 106.753 10.1268 107.279 9.89164 107.621 9.42129C 107.968 8.95094 108.141 8.32856 108.141 7.55414L 108.141 7.40448Z"/>
<path id="path26_fill" d="M 111.157 10.2195L 112.404 10.0199L 112.404 4.5111L 111.157 4.31156L 111.157 3.40649L 113.912 3.40649L 113.912 10.0199L 115.159 10.2195L 115.159 11.1174L 111.157 11.1174L 111.157 10.2195ZM 113.912 1.43244L 112.404 1.43244L 112.404 0L 113.912 0L 113.912 1.43244Z"/>
<path id="path27_fill" d="M 116.093 10.2195L 117.34 10.0199L 117.34 4.5111L 116.093 4.31156L 116.093 3.40649L 118.687 3.40649L 118.795 4.55386C 119.07 4.14527 119.415 3.82933 119.828 3.60603C 120.246 3.37798 120.721 3.26396 121.251 3.26396C 122.144 3.26396 122.836 3.50864 123.325 3.99799C 123.815 4.4826 124.06 5.23326 124.06 6.24998L 124.06 10.0199L 125.308 10.2195L 125.308 11.1174L 121.305 11.1174L 121.305 10.2195L 122.552 10.0199L 122.552 6.27849C 122.552 5.59909 122.407 5.11686 122.116 4.8318C 121.83 4.54674 121.392 4.4042 120.8 4.4042C 120.366 4.4042 119.981 4.5016 119.644 4.69639C 119.313 4.89118 119.047 5.15724 118.848 5.49457L 118.848 10.0199L 120.096 10.2195L 120.096 11.1174L 116.093 11.1174L 116.093 10.2195Z"/>
<path id="path28_fill" d="M 126.333 7.40448C 126.333 6.16446 126.624 5.16437 127.206 4.4042C 127.787 3.64404 128.591 3.26396 129.616 3.26396C 130.137 3.26396 130.593 3.35898 130.986 3.54902C 131.379 3.73906 131.708 4.01462 131.974 4.3757L 132.111 3.40649L 133.382 3.40649L 133.382 11.0176C 133.382 12.0154 133.083 12.7993 132.486 13.3694C 131.889 13.9443 131.04 14.2317 129.938 14.2317C 129.54 14.2317 129.109 14.1794 128.644 14.0749C 128.18 13.9752 127.772 13.8374 127.42 13.6616L 127.81 12.5712C 128.091 12.709 128.422 12.823 128.805 12.9133C 129.188 13.0036 129.56 13.0487 129.923 13.0487C 130.596 13.0487 131.088 12.8729 131.4 12.5213C 131.716 12.1698 131.874 11.6685 131.874 11.0176L 131.874 10.2836C 131.604 10.6067 131.28 10.8514 130.902 11.0176C 130.525 11.1839 130.091 11.2671 129.601 11.2671C 128.586 11.2671 127.787 10.925 127.206 10.2408C 126.624 9.5567 126.333 8.66113 126.333 7.55414L 126.333 7.40448ZM 127.841 7.55414C 127.841 8.32856 128.017 8.95094 128.369 9.42129C 128.721 9.89164 129.257 10.1268 129.976 10.1268C 130.43 10.1268 130.81 10.0318 131.116 9.84176C 131.423 9.64697 131.675 9.37378 131.874 9.02221L 131.874 5.47319C 131.68 5.14537 131.428 4.88643 131.116 4.69639C 130.805 4.5016 130.43 4.4042 129.991 4.4042C 129.272 4.4042 128.734 4.68451 128.377 5.24514C 128.019 5.80576 127.841 6.52554 127.841 7.40448L 127.841 7.55414Z"/>
<path id="path29_fill" d="M 145.443 5.82951L 144.311 5.82951L 144.066 4.90306C 143.882 4.74153 143.65 4.61325 143.369 4.51823C 143.094 4.41846 142.78 4.36857 142.428 4.36857C 141.892 4.36857 141.494 4.47785 141.234 4.69639C 140.974 4.91494 140.844 5.17862 140.844 5.48744C 140.844 5.79151 140.959 6.03143 141.188 6.20722C 141.418 6.38301 141.885 6.53979 142.589 6.67757C 143.635 6.88662 144.413 7.17168 144.923 7.53276C 145.433 7.88908 145.688 8.36894 145.688 8.97232C 145.688 9.65647 145.39 10.21 144.793 10.6328C 144.201 11.0556 143.426 11.2671 142.466 11.2671C 141.839 11.2671 141.275 11.2006 140.775 11.0675C 140.275 10.9297 139.828 10.7326 139.436 10.476L 139.428 8.71576L 140.561 8.71576L 140.844 9.74911C 141.017 9.89639 141.252 10.0033 141.548 10.0698C 141.849 10.1363 142.155 10.1696 142.466 10.1696C 143.002 10.1696 143.42 10.0698 143.721 9.87026C 144.028 9.66597 144.181 9.39991 144.181 9.07209C 144.181 8.76327 144.053 8.50909 143.798 8.30955C 143.548 8.11001 143.071 7.93659 142.367 7.78931C 141.362 7.58502 140.604 7.30708 140.094 6.95551C 139.584 6.60393 139.328 6.12883 139.328 5.5302C 139.328 4.90306 139.614 4.36857 140.186 3.92673C 140.762 3.48488 141.51 3.26396 142.428 3.26396C 143.056 3.26396 143.619 3.33997 144.119 3.49201C 144.619 3.64404 145.035 3.85546 145.367 4.12627L 145.443 5.82951Z"/>
<path id="path30_fill" d="M 150.877 11.2671C 149.724 11.2671 148.806 10.9107 148.122 10.1981C 147.444 9.48068 147.104 8.55185 147.104 7.41161L 147.104 7.09804C 147.104 6.00055 147.454 5.08835 148.153 4.36145C 148.857 3.62979 149.688 3.26396 150.648 3.26396C 151.76 3.26396 152.602 3.57753 153.173 4.20466C 153.75 4.8318 154.038 5.66798 154.038 6.71321L 154.038 7.58977L 148.665 7.58977L 148.643 7.6254C 148.658 8.36656 148.859 8.97707 149.247 9.45692C 149.635 9.93203 150.178 10.1696 150.877 10.1696C 151.388 10.1696 151.834 10.1031 152.217 9.97004C 152.604 9.83226 152.939 9.64459 153.219 9.40704L 153.809 10.3192C 153.513 10.5853 153.12 10.811 152.63 10.9963C 152.145 11.1768 151.561 11.2671 150.877 11.2671ZM 150.648 4.36857C 150.143 4.36857 149.711 4.56812 149.354 4.9672C 148.997 5.36154 148.778 5.85802 148.696 6.45665L 148.711 6.49228L 152.53 6.49228L 152.53 6.30699C 152.53 5.75587 152.372 5.29502 152.056 4.92444C 151.74 4.55386 151.27 4.36857 150.648 4.36857Z"/>
<path id="path31_fill" d="M 155.531 4.31156L 155.531 3.40649L 158.125 3.40649L 158.27 4.52536C 158.505 4.13102 158.793 3.8222 159.135 3.5989C 159.482 3.37561 159.878 3.26396 160.321 3.26396C 160.439 3.26396 160.559 3.27346 160.681 3.29246C 160.809 3.30672 160.906 3.32335 160.972 3.34235L 160.773 4.64651L 159.916 4.60375C 159.518 4.60375 159.184 4.69164 158.913 4.86743C 158.643 5.03847 158.434 5.28077 158.286 5.59434L 158.286 10.0199L 159.533 10.2195L 159.533 11.1174L 155.531 11.1174L 155.531 10.2195L 156.778 10.0199L 156.778 4.5111L 155.531 4.31156Z"/>
<path id="path32_fill" d="M 164.998 4.31156L 164.003 4.45409L 165.709 8.84404L 165.847 9.39991L 165.893 9.39991L 166.038 8.84404L 167.692 4.45409L 166.689 4.31156L 166.689 3.40649L 169.888 3.40649L 169.888 4.31156L 169.207 4.41846L 166.429 11.1174L 165.288 11.1174L 162.48 4.41846L 161.799 4.31156L 161.799 3.40649L 164.998 3.40649L 164.998 4.31156Z"/>
<path id="path33_fill" d="M 170.914 10.2195L 172.161 10.0199L 172.161 4.5111L 170.914 4.31156L 170.914 3.40649L 173.669 3.40649L 173.669 10.0199L 174.916 10.2195L 174.916 11.1174L 170.914 11.1174L 170.914 10.2195ZM 173.669 1.43244L 172.161 1.43244L 172.161 0L 173.669 0L 173.669 1.43244Z"/>
<path id="path34_fill" d="M 179.791 10.1696C 180.292 10.1696 180.73 10.027 181.108 9.74199C 181.491 9.45217 181.682 9.09822 181.682 8.68013L 183.036 8.68013L 183.052 8.72289C 183.077 9.38803 182.758 9.97954 182.095 10.4974C 181.437 11.0105 180.669 11.2671 179.791 11.2671C 178.587 11.2671 177.666 10.9012 177.029 10.1696C 176.396 9.43792 176.08 8.5186 176.08 7.41161L 176.08 7.11229C 176.08 6.0148 176.399 5.10023 177.036 4.36857C 177.674 3.63216 178.592 3.26396 179.791 3.26396C 180.455 3.26396 181.049 3.3661 181.575 3.5704C 182.105 3.77469 182.544 4.055 182.891 4.41133L 182.96 6.1217L 181.758 6.1217L 181.429 4.91019C 181.251 4.74865 181.021 4.618 180.74 4.51823C 180.46 4.41846 180.144 4.36857 179.791 4.36857C 179.001 4.36857 178.434 4.63463 178.092 5.16674C 177.756 5.69411 177.587 6.34262 177.587 7.11229L 177.587 7.41161C 177.587 8.20028 177.756 8.8583 178.092 9.38566C 178.429 9.90827 178.996 10.1696 179.791 10.1696Z"/>
<path id="path35_fill" d="M 188.302 11.2671C 187.149 11.2671 186.23 10.9107 185.547 10.1981C 184.868 9.48068 184.529 8.55185 184.529 7.41161L 184.529 7.09804C 184.529 6.00055 184.878 5.08835 185.577 4.36145C 186.282 3.62979 187.113 3.26396 188.072 3.26396C 189.185 3.26396 190.027 3.57753 190.598 4.20466C 191.174 4.8318 191.463 5.66798 191.463 6.71321L 191.463 7.58977L 186.09 7.58977L 186.067 7.6254C 186.083 8.36656 186.284 8.97707 186.672 9.45692C 187.06 9.93203 187.603 10.1696 188.302 10.1696C 188.812 10.1696 189.259 10.1031 189.641 9.97004C 190.029 9.83226 190.363 9.64459 190.644 9.40704L 191.233 10.3192C 190.937 10.5853 190.544 10.811 190.055 10.9963C 189.57 11.1768 188.986 11.2671 188.302 11.2671ZM 188.072 4.36857C 187.567 4.36857 187.136 4.56812 186.779 4.9672C 186.422 5.36154 186.202 5.85802 186.121 6.45665L 186.136 6.49228L 189.955 6.49228L 189.955 6.30699C 189.955 5.75587 189.797 5.29502 189.481 4.92444C 189.164 4.55386 188.695 4.36857 188.072 4.36857Z"/>
</defs>
</svg>
